<svg id="Layer_1" data-name="Layer 1" xmlns="http://www.w3.org/2000/svg" xmlns:xlink="http://www.w3.org/1999/xlink" viewBox="0 0 205.08 290.54"><defs><style>.cls-1{fill:none;stroke-width:5px;stroke:url(#linear-gradient);}.cls-1,.cls-6{stroke-miterlimit:10;}.cls-1,.cls-5{opacity:0.6;}.cls-2{fill:url(#linear-gradient-2);}.cls-3{fill:url(#radial-gradient);}.cls-4{fill:snow;}.cls-5,.cls-6{fill:#d30000;}.cls-6{stroke:#fff;stroke-width:13px;}</style><linearGradient id="linear-gradient" x1="137.67" y1="140.39" x2="296.12" y2="329.22" gradientUnits="userSpaceOnUse"><stop offset="0" stop-color="#fff"/><stop offset="0.43" stop-color="#fdfdfd"/><stop offset="0.58" stop-color="#f6f6f6"/><stop offset="0.69" stop-color="#ebebeb"/><stop offset="0.78" stop-color="#dadada"/><stop offset="0.86" stop-color="#c4c4c4"/><stop offset="0.92" stop-color="#a8a8a8"/><stop offset="0.98" stop-color="#898989"/><stop offset="1" stop-color="#7f7f7f"/></linearGradient><linearGradient id="linear-gradient-2" x1="123.08" y1="214.66" x2="323.15" y2="214.66" gradientUnits="userSpaceOnUse"><stop offset="0.69" stop-color="#d30000"/><stop offset="0.98" stop-color="#d30000"/></linearGradient><radialGradient id="radial-gradient" cx="223.11" cy="256.5" r="95.5" gradientTransform="translate(-120.58 -64.87) scale(1 0.99)" gradientUnits="userSpaceOnUse"><stop offset="0" stop-color="#fff"/><stop offset="0.12" stop-color="#fefbfb"/><stop offset="0.25" stop-color="#fcefef"/><stop offset="0.37" stop-color="#f9dada"/><stop offset="0.5" stop-color="#f4bebe"/><stop offset="0.63" stop-color="#ed9999"/><stop offset="0.76" stop-color="#e66c6c"/><stop offset="0.88" stop-color="#dd3838"/><stop offset="1" stop-color="#d30000"/></radialGradient></defs><title>SpotOnSpotOn</title><path class="cls-1" d="M223,72.71c9.56,14.69,18.91,29,28.23,43.4,18.59,28.66,37.08,57.39,55.74,86,37.71,57.8,6.36,136-60.94,151.83-55.19,13-110.86-23.06-121.13-78.77-4.8-26-.06-50.53,14.33-72.91Q180.54,138,222,73.86A14.37,14.37,0,0,1,223,72.71Z" transform="translate(-120.58 -68.56)"/><path class="cls-2" d="M223,72.71c9.56,14.69,18.91,29,28.23,43.4,18.59,28.66,37.08,57.39,55.74,86,37.71,57.8,6.36,136-60.94,151.83-55.19,13-110.86-23.06-121.13-78.77-4.8-26-.06-50.53,14.33-72.91Q180.54,138,222,73.86A14.37,14.37,0,0,1,223,72.71Z" transform="translate(-120.58 -68.56)"/><ellipse class="cls-3" cx="102.54" cy="188.94" rx="95.5" ry="94.5"/><path class="cls-4" d="M223,126c7.26,10.69,14.37,21.13,21.45,31.58,14.13,20.86,28.18,41.76,42.36,62.58,28.66,42.05,4.83,99-46.32,110.48-41.95,9.45-84.26-16.77-92.06-57.31-3.65-18.95,0-36.77,10.9-53.05q31.41-46.76,62.93-93.45A10.59,10.59,0,0,1,223,126Z" transform="translate(-120.58 -68.56)"/><path class="cls-5" d="M223,163c5.51,8.11,10.9,16,16.27,24,10.72,15.82,21.37,31.68,32.14,47.47,21.74,31.9,3.66,75.08-35.14,83.82-31.82,7.17-63.92-12.72-69.84-43.48a52.14,52.14,0,0,1,8.27-40.25q23.83-35.47,47.74-70.89A8,8,0,0,1,223,163Z" transform="translate(-120.58 -68.56)"/><circle class="cls-6" cx="102.54" cy="194.56" r="32.62"/></svg>