<svg id="Layer_1" data-name="Layer 1" xmlns="http://www.w3.org/2000/svg" viewBox="0 0 164.34 55.99"><defs><style>.cls-1{fill:#686868;}.cls-2{fill:#d30000;}</style></defs><title>SpotOnTextUntitled-2</title><path class="cls-1" d="M33.51,26.57c-2.86-2.39-5.25-3.4-7.93-3.4-4.05,0-6.92,2.56-7.1,6.44a6.15,6.15,0,0,0,2.92,5.66A29,29,0,0,0,24.57,37l1.19.6,1.25.54,1.19.6c3.82,1.79,5.55,3.1,6.68,5.07a10.69,10.69,0,0,1,1.43,5.78c0,6.44-5.07,11.09-12.16,11.09-4.23,0-7.39-1.13-11.15-4.11l1-3.82c3.4,3.16,6.68,4.71,10.14,4.71,5.25,0,8.47-2.86,8.47-7.57a7,7,0,0,0-2.68-5.72,17.62,17.62,0,0,0-3.52-2.09l-3.58-1.61C17,37.78,14.91,35,14.91,30.21A10.47,10.47,0,0,1,25.7,19.89a14.24,14.24,0,0,1,9.42,3.46Z" transform="translate(-13 -19.89)"/><path class="cls-1" d="M44.25,75.89h-3.4V43c0-5.43-.36-7.16-1.85-8.59l2.8-1.37a5.61,5.61,0,0,1,1.91,3,14.1,14.1,0,0,1,7.81-2.92C58.68,32.65,64,38.44,64,46.73c0,7.87-5.49,13.6-13,13.6a14.55,14.55,0,0,1-6.8-1.43Zm0-20.16c2.68,1.49,4.35,2,6.8,1.85,5.66-.24,9.36-4.53,9.36-10.73C60.41,40.35,56.65,36,51,36c-2.44,0-4.17.6-6.74,2.33Z" transform="translate(-13 -19.89)"/><path class="cls-1" d="M93,46.43c0,8.29-5.19,14.07-12.64,14.07-4.71,0-8.23-1.55-10.61-4.83A14.83,14.83,0,0,1,67,46.85C67,39,72.57,33.13,80,33.13S93,38.8,93,46.43Zm-22.54,0c0,6.38,4.23,11.27,9.72,11.27s9.3-4.17,9.3-10.44c0-6.62-4.06-11.21-10-11.21C74.18,36.05,70.49,40.29,70.49,46.43Z" transform="translate(-13 -19.89)"/><path class="cls-1" d="M109.19,36.41h-7.33V51c0,3.7.24,4.89,1.25,5.66a5.39,5.39,0,0,0,3.82.78,10.58,10.58,0,0,0,3.76-1l.54,2.51a14.17,14.17,0,0,1-6.62,1.37A5.85,5.85,0,0,1,99,57c-.48-1.25-.6-2.15-.6-5.67v-15H92.85V34.21l1.49-.06c2.15-.06,3.52-.42,4.23-1.07s.89-1.67,1.25-4.95l.24-1.85h2.15l-.36,7.51h7.33Z" transform="translate(-13 -19.89)"/><path class="cls-2" d="M141.86,22.4c6.14,3.52,9.6,10,9.6,17.95,0,12-8,20.33-19.8,20.33C120.22,60.68,112,52,112,39.93A20.07,20.07,0,0,1,119.44,24a20.59,20.59,0,0,1,11.93-4.11C135.84,19.89,138.7,20.55,141.86,22.4ZM116,39.93a18.32,18.32,0,0,0,5.13,12.88,15.65,15.65,0,0,0,10.55,4.47c5.9,0,10.14-2,13-6.26a18.8,18.8,0,0,0,2.86-10.55c0-9.84-7-17.29-16.22-17.29S116,30,116,39.93Z" transform="translate(-13 -19.89)"/><path class="cls-2" d="M157.07,33.07c1.37,1.19,1.91,2.33,2.21,4.65A14.18,14.18,0,0,1,162.14,35a10.7,10.7,0,0,1,5.78-2c5.9,0,9.42,3.52,9.42,9.48V59.85h-3.4V44.22c0-3.4-.42-4.95-1.61-6.26a6.51,6.51,0,0,0-5-2c-2.8,0-5.19,1.31-7.81,4.29V59.85h-3.4V43c0-5.43-.36-7.22-1.85-8.59Z" transform="translate(-13 -19.89)"/></svg>